<svg width="563" height="412" viewBox="0 0 563 412" fill="none"
    xmlns="http://www.w3.org/2000/svg">
    <g clip-path="url(#clip0_401_108)">
        <path d="M485.871 398.884L368.234 399.314C337.025 388.96 311.456 352.998 311.294 299.08C311.263 290.957 311.818 282.845 312.956 274.82L407.707 251.316L480.802 233.186C486.188 238.511 491.207 244.273 495.817 250.423L425.921 291.173L392.948 310.397L430 296.284L506.902 266.991C511.698 275.087 515.971 283.546 519.69 292.305L496.487 318.782L522.735 299.809C522.847 300.099 522.959 300.39 523.07 300.682C539.705 344.286 519.065 398.762 485.871 398.884Z" fill="#DEDDDD"/>
        <path d="M466.539 220.982C448.749 226.623 426.878 233.751 404.391 241.159C371.878 251.873 338.079 263.18 313.472 271.445L313.488 271.348C314.397 265.549 316.536 260.068 319.729 255.355C337.957 229.187 361.167 210.907 386.999 204.118H387.002C394.266 202.205 401.706 201.225 409.173 201.198C429.726 201.123 449.193 208.24 466.539 220.982Z" fill="#DEDDDD"/>
        <path d="M129.793 317.363L109.454 384.619L104.46 401.143C102.056 405.154 99.1908 408.803 95.9358 412H95.4585C69.8336 412 46.5643 410.544 29.4177 408.181L31.8041 387.979L36.926 344.653L43.4747 289.166C47.346 286.38 51.3996 283.916 55.602 281.794L61.3757 339.343L64.1009 366.492L64.8913 337.422L66.5284 277.085C71.6915 275.241 76.9717 273.824 82.3253 272.846L90.9012 294.436L86.8467 272.121C87.0212 272.098 87.1958 272.07 87.3702 272.047C113.406 268.585 136.937 293.722 129.793 317.363Z" fill="#DEDDDD"/>
        <path d="M34.1033 296.974C33.1385 310.716 32.0556 327.642 30.9778 345.066C30.0746 359.715 29.1816 374.708 28.3758 388.444C27.9755 395.295 27.5957 401.834 27.2519 407.863C24.3368 407.438 21.6116 406.979 19.102 406.503C16.6261 401.649 14.5099 396.582 12.774 391.351C8.36031 378.052 6.67182 364.106 8.15502 350.331V350.325C8.75136 344.77 9.8623 339.298 11.4704 333.994C15.8553 319.628 23.6753 306.837 34.1033 296.974V296.974Z" fill="#DEDDDD"/>
        <path d="M190.917 398.236C190.917 405.818 148.433 411.96 95.9358 412H95.4585C69.8336 412 46.5643 410.544 29.4176 408.181C28.6837 408.073 27.9601 407.971 27.2519 407.863C24.3368 407.438 21.6116 406.979 19.102 406.503C7.10807 404.197 0 401.335 0 398.236C0 395.726 4.64975 393.38 12.774 391.351C17.0645 390.28 22.3198 389.305 28.3758 388.444C29.4895 388.28 30.6323 388.125 31.8041 387.979C48.6941 385.798 71.0037 384.472 95.4585 384.472C100.211 384.472 104.886 384.523 109.454 384.619C155.536 385.594 190.917 391.317 190.917 398.236Z" fill="#3F3D56"/>
        <path d="M76.946 277.741L79.3445 298.397C79.3445 298.397 80.304 305.283 81.2634 308.99C81.2634 308.99 80.304 328.587 87.9792 342.358L92.7762 352.422L93.7356 367.252L105.728 368.841L103.33 346.595C103.33 346.595 102.37 336.002 103.33 331.765C104.289 327.528 98.5326 307.931 98.5326 307.931C98.5326 307.931 106.208 280.389 100.451 273.504C94.695 266.618 76.946 277.741 76.946 277.741Z" fill="#DAAB85"/>
        <path d="M98.0529 363.014C98.0529 363.014 92.7762 363.014 92.2965 364.603C91.8168 366.192 84.1416 380.493 84.1416 380.493C84.1416 380.493 77.4258 392.145 87.0198 392.675C96.6138 393.205 99.492 388.438 99.492 388.438C99.492 388.438 108.127 373.078 108.606 370.43C109.086 367.781 105.002 362.106 105.002 362.106C105.002 362.106 99.492 366.192 98.0529 363.014Z" fill="#2F2E41"/>
        <path d="M104.769 103.486C113.776 103.486 121.079 95.4233 121.079 85.4777C121.079 75.5321 113.776 67.4696 104.769 67.4696C95.761 67.4696 88.4589 75.5321 88.4589 85.4777C88.4589 95.4233 95.761 103.486 104.769 103.486Z" fill="#DAAB85"/>
        <path d="M91.577 91.0391C91.577 91.0391 91.577 110.636 85.3408 112.225C79.1047 113.814 93.9755 131.822 102.13 129.704C110.285 127.585 113.643 113.284 113.643 113.284C113.643 113.284 106.448 103.221 109.326 97.9245C112.204 92.628 91.577 91.0391 91.577 91.0391Z" fill="#DAAB85"/>
        <path d="M98.5326 118.316C96.2429 118.237 94.0036 117.554 92.0016 116.324C89.9996 115.095 88.293 113.355 87.0244 111.248C87.0244 111.248 80.3039 112.49 79.3446 113.02C78.3852 113.549 61.5956 119.375 57.758 131.557L73.1084 153.273C73.1084 153.273 69.7505 183.993 73.1084 197.764C75.108 206.012 74.6025 214.757 71.6693 222.657C71.6693 222.657 70.2302 223.187 72.6287 224.246C75.0273 225.305 130.193 213.123 131.152 209.946C132.112 206.768 130.193 206.768 131.632 205.179C133.071 203.59 136.909 194.056 133.071 190.878C129.234 187.7 126.835 152.743 126.835 152.743L136.909 124.672C136.909 124.672 118.498 108.426 111.873 110.458C111.873 110.458 110.525 118.316 98.5326 118.316Z" fill="#D0CDE6"/>
        <path d="M104.769 267.148C104.769 267.148 103.809 290.452 105.728 299.456C107.647 308.46 107.647 312.168 107.647 312.168C107.647 312.168 104.769 327.528 106.208 341.828C107.647 356.129 104.529 379.18 104.529 379.18L116.282 383.141L123.477 342.888C123.477 342.888 129.233 317.994 125.876 306.342C125.876 306.342 127.794 270.855 129.233 267.148C130.673 263.44 104.769 267.148 104.769 267.148Z" fill="#DAAB85"/>
        <path d="M91.8967 88.6849C92.1129 86.9958 92.5702 85.1532 93.8747 84.2391C95.229 83.29 96.9772 83.6793 98.5769 83.8085C100.177 83.9377 102.137 83.4959 102.663 81.8227C102.991 80.7795 102.636 79.5328 103.148 78.5838C103.962 77.0737 106.447 77.2461 106.876 75.5536C107.011 75.0176 106.879 74.4193 107.075 73.9065C107.34 73.2147 108.082 72.939 108.744 72.7695C111.167 72.1508 113.655 71.9086 116.138 72.0501C116.382 72.0982 116.632 72.0434 116.84 71.8968C116.95 71.7768 117.028 71.6264 117.067 71.4614C117.628 69.6069 117.033 67.5027 115.916 65.9858C114.729 64.5249 113.265 63.3702 111.628 62.6034C108.005 60.6632 104.077 59.5108 100.06 59.209C96.9999 58.9967 93.788 59.3645 91.1818 61.1472C90.4093 61.6867 89.6925 62.3176 89.044 63.0288C86.2088 66.1681 84.3603 70.2286 83.77 74.6137C83.1976 78.9884 83.6409 83.452 85.0584 87.5857C85.8865 90.0742 87.1926 92.6443 89.2135 94.1778C90.2967 94.9997 91.2306 95.7584 91.6804 94.3628C92.1574 92.8829 91.6867 90.3249 91.8967 88.6849Z" fill="#2F2E41"/>
        <path d="M74.0678 219.479C74.0678 219.479 66.8723 230.072 68.3114 237.487C69.7505 244.903 75.0272 257.084 75.0272 257.084C75.0272 257.084 72.149 280.919 76.946 280.919C81.743 280.919 102.37 279.859 102.85 277.211C103.33 274.563 101.411 248.08 101.411 248.08C101.411 248.08 103.809 271.385 105.248 271.385C106.688 271.385 131.632 274.033 132.591 272.444C133.551 270.855 135.47 230.072 135.47 230.072C135.47 230.072 138.086 210.838 129.822 208.273C121.558 205.708 74.0678 219.479 74.0678 219.479Z" fill="#2F2E41"/>
        <path d="M112.444 378.904C112.444 378.904 103.809 373.607 103.33 377.845C102.85 382.082 97.5732 397.442 97.5732 397.442C97.5732 397.442 92.2965 409.624 103.809 410.153C115.322 410.683 118.2 404.857 118.2 402.209C118.2 399.56 116.91 381.392 116.91 381.392L112.444 378.904Z" fill="#2F2E41"/>
        <path d="M142.185 153.273L144.584 176.578C144.584 176.578 147.462 189.289 145.543 194.586C143.625 199.882 136.429 224.246 136.429 224.246C136.429 224.246 134.51 211.005 129.713 209.416L132.591 179.226C132.591 179.226 125.723 160.386 127.239 157.889C128.754 155.392 142.185 153.273 142.185 153.273Z" fill="#DAAB85"/>
        <path d="M56.7986 154.862L57.758 176.048C57.758 176.048 54.4001 194.586 61.1159 214.183L62.0753 222.657L68.3114 235.898C68.3114 235.898 69.7505 223.187 72.6287 223.187C72.6287 223.187 69.7505 214.712 70.7099 209.946C71.6693 205.179 70.2302 179.756 70.2302 179.756L72.6287 159.189L56.7986 154.862Z" fill="#DAAB85"/>
        <path d="M131.632 124.142H136.909C136.909 124.142 149.381 155.921 144.584 156.451C139.787 156.981 124.436 161.218 123.957 159.099C123.477 156.981 131.632 124.142 131.632 124.142Z" fill="#D0CDE6"/>
        <path d="M62.0753 126.79L57.758 131.557C57.758 131.557 52.0016 155.392 56.3189 158.04C60.6362 160.688 76.946 163.866 77.9054 161.747C78.8649 159.629 62.0753 126.79 62.0753 126.79Z" fill="#D0CDE6"/>
        <path d="M405.997 16.5067V383.813C405.993 388.189 404.416 392.384 401.613 395.477C398.81 398.569 395.01 400.307 391.047 400.309H255.993C254.03 400.313 252.085 399.889 250.271 399.061C248.456 398.234 246.807 397.019 245.418 395.487C244.029 393.954 242.928 392.134 242.177 390.131C241.427 388.128 241.041 385.981 241.043 383.813V16.5067C241.043 14.339 241.43 12.1924 242.181 10.1896C242.932 8.18687 244.033 6.36711 245.422 4.83428C246.81 3.30146 248.458 2.08559 250.272 1.25612C252.086 0.426642 254.03 -0.000186779 255.993 7.74434e-07H276.204V2.86162C276.203 6.46615 277.5 9.92326 279.808 12.4726C282.116 15.0219 285.246 16.4547 288.511 16.4557H357.2C359.828 16.4619 362.387 15.5318 364.498 13.8038C364.925 13.4611 365.329 13.0862 365.709 12.6818C366.911 11.4142 367.868 9.89013 368.521 8.20207C369.174 6.51401 369.509 4.69713 369.507 2.86162V7.74434e-07H391.047C393.01 -0.000663362 394.954 0.42584 396.768 1.25514C398.583 2.08445 400.231 3.30029 401.619 4.83321C403.008 6.36613 404.109 8.18607 404.86 10.1891C405.611 12.192 405.997 14.3388 405.997 16.5067V16.5067Z" fill="#3F3D56"/>
        <path opacity="0.1" d="M342.316 156.194C363.575 156.194 380.808 152.389 380.808 147.694C380.808 143 363.575 139.195 342.316 139.195C321.058 139.195 303.825 143 303.825 147.694C303.825 152.389 321.058 156.194 342.316 156.194Z" fill="black"/>
        <path opacity="0.1" d="M286.376 199.827C307.634 199.827 324.867 196.021 324.867 191.327C324.867 186.633 307.634 182.827 286.376 182.827C265.117 182.827 247.884 186.633 247.884 191.327C247.884 196.021 265.117 199.827 286.376 199.827Z" fill="black"/>
        <path opacity="0.1" d="M318.195 279.725C339.453 279.725 356.686 275.92 356.686 271.226C356.686 266.531 339.453 262.726 318.195 262.726C296.937 262.726 279.704 266.531 279.704 271.226C279.704 275.92 296.937 279.725 318.195 279.725Z" fill="black"/>
        <path opacity="0.1" d="M307.417 366.424C328.676 366.424 345.909 362.618 345.909 357.924C345.909 353.23 328.676 349.424 307.417 349.424C286.159 349.424 268.926 353.23 268.926 357.924C268.926 362.618 286.159 366.424 307.417 366.424Z" fill="black"/>
        <path d="M441.111 228.644H324.097V241.268V260.492V271.309L333.893 260.492H441.111V228.644Z" fill="#6C63FF"/>
        <path d="M162.177 147.328H279.19V159.952V179.177V189.994L269.394 179.177H162.177V147.328Z" fill="#6C63FF"/>
        <path d="M416.032 236.376H350.203V242.269H416.032V236.376Z" fill="white"/>
        <path d="M416.032 245.216H350.203V251.109H416.032V245.216Z" fill="white"/>
        <path d="M247.953 155.628H182.124V161.521H247.953V155.628Z" fill="white"/>
        <path d="M247.953 164.468H182.124V170.361H247.953V164.468Z" fill="white"/>
        <path d="M563 67.2292H342.316V91.0379V127.295V147.694L360.792 127.295H563V67.2292Z" fill="#6C63FF"/>
        <path d="M528.614 80.829H376.702V94.4287H528.614V80.829Z" fill="white"/>
        <path d="M528.614 101.229H376.702V114.828H528.614V101.229Z" fill="white"/>
        <path d="M293.479 340.929C299.096 352.432 311.018 357.369 311.018 357.369C311.018 357.369 313.832 343.658 308.215 332.156C302.598 320.654 290.676 315.716 290.676 315.716C290.676 315.716 287.861 329.427 293.479 340.929Z" fill="white"/>
        <path d="M297.34 337.145C307.481 343.882 311.387 357.263 311.387 357.263C311.387 357.263 298.85 359.722 288.709 352.985C278.567 346.248 274.661 332.867 274.661 332.867C274.661 332.867 287.198 330.408 297.34 337.145Z" fill="#6C63FF"/>
    </g>
    <defs>
        <clipPath id="clip0_401_108">
            <rect width="563" height="412" fill="white"/>
        </clipPath>
    </defs>
</svg>
