<svg width="25" height="21" viewBox="0 0 25 21" fill="none"
    xmlns="http://www.w3.org/2000/svg">
    <path d="M14.566 10.7999L13.6247 9.94426C13.7274 9.75216 13.8173 9.55484 13.8942 9.35289H15.2253C15.6627 9.35289 16.0175 9.03047 16.0175 8.63275V6.52167C16.0175 6.12402 15.6628 5.80153 15.2253 5.80153H13.8941C13.8173 5.59965 13.7273 5.40233 13.6247 5.21023L14.566 4.35447C14.8754 4.07326 14.8754 3.61728 14.566 3.33607L12.924 1.84333C12.6146 1.56219 12.1132 1.56219 11.8038 1.84333L10.8624 2.69908C10.6511 2.60579 10.4341 2.52395 10.212 2.45416V1.24395C10.212 0.846301 9.85733 0.523804 9.41984 0.523804H7.09766C6.66024 0.523804 6.3055 0.846228 6.3055 1.24395V2.45416C6.08343 2.52402 5.86638 2.60571 5.65507 2.69908L4.71382 1.84333C4.56529 1.7083 4.36376 1.63242 4.15366 1.63242C3.94356 1.63242 3.7421 1.7083 3.5935 1.84333L1.95139 3.33607C1.80287 3.47109 1.71939 3.65431 1.71939 3.84531C1.71939 4.03631 1.80287 4.21945 1.95139 4.35455L2.89273 5.21031C2.7901 5.40233 2.70008 5.59965 2.62331 5.8016H1.29216C0.854667 5.8016 0.5 6.12402 0.5 6.52167V8.63282C0.5 9.03047 0.854667 9.35297 1.29216 9.35297H2.62331C2.70024 9.55484 2.7901 9.75216 2.89281 9.94434L1.95147 10.8C1.64214 11.0812 1.64214 11.5372 1.95147 11.8184L3.5935 13.3112C3.90291 13.5922 4.40432 13.5924 4.71374 13.3112L5.65507 12.4554C5.8663 12.5488 6.08343 12.6306 6.3055 12.7004V13.9106C6.3055 14.3083 6.66016 14.6308 7.09766 14.6308H9.41992C9.85733 14.6308 10.2121 14.3083 10.2121 13.9106V12.7004C10.4341 12.6305 10.6512 12.5488 10.8625 12.4554L11.8038 13.3112C12.1133 13.5923 12.6147 13.5923 12.9241 13.3112L14.5661 11.8184C14.8754 11.5371 14.8754 11.0812 14.566 10.7999ZM12.5265 8.47172C12.4174 8.9036 12.2309 9.31286 11.9722 9.6881C11.776 9.97247 11.8222 10.3424 12.0833 10.5797L12.8857 11.3092L12.3639 11.7836L11.5614 11.0541C11.3002 10.8167 10.8935 10.775 10.5806 10.953C10.1677 11.1883 9.71762 11.3579 9.24279 11.4569C8.88287 11.532 8.62784 11.8232 8.62784 12.1588V13.1905H7.8899V12.1588C7.8899 11.8232 7.63487 11.5321 7.27495 11.4569C6.80012 11.3579 6.35002 11.1883 5.93709 10.953C5.62453 10.775 5.21749 10.8166 4.95632 11.0541L4.15382 11.7836L3.63204 11.3092L4.43446 10.5797C4.69556 10.3424 4.74162 9.97247 4.54558 9.6881C4.28683 9.31286 4.10032 8.9036 3.99123 8.47172C3.90865 8.14459 3.5884 7.91275 3.21919 7.91275H2.08424V7.24189H3.21895C3.58808 7.24189 3.90832 7.01005 3.99099 6.683C4.10016 6.25104 4.28659 5.84186 4.54533 5.46669C4.74154 5.18232 4.69539 4.81236 4.4343 4.57501L3.6318 3.84546L4.15366 3.37111L4.95608 4.10066C5.21717 4.33809 5.6242 4.37974 5.93693 4.2016C6.3497 3.96637 6.7998 3.7969 7.27471 3.6978C7.63463 3.62272 7.88966 3.33152 7.88966 2.99587V1.9641H8.6276V2.99572C8.6276 3.33137 8.88263 3.6225 9.24255 3.69765C9.71754 3.79675 10.1676 3.96623 10.5803 4.20145C10.8931 4.37975 11.3002 4.33802 11.5612 4.10052L12.3637 3.37097L12.8855 3.84531L12.0829 4.57486C11.8219 4.81229 11.7758 5.18217 11.9719 5.46654C12.2307 5.84171 12.4171 6.25097 12.5263 6.68285C12.6088 7.0099 12.9292 7.24175 13.2983 7.24175H14.433V7.9126H13.2983C12.9293 7.91267 12.6091 8.14452 12.5265 8.47172Z" fill="#000"/>
    <path d="M8.25871 4.81003C6.58025 4.81003 5.21475 6.05139 5.21475 7.57726C5.21475 9.10314 6.58025 10.3445 8.25871 10.3445C9.93718 10.3445 11.3027 9.10314 11.3027 7.57726C11.3027 6.05139 9.93726 4.81003 8.25871 4.81003ZM8.25871 8.90428C7.45378 8.90428 6.79899 8.30902 6.79899 7.57726C6.79899 6.84551 7.45386 6.25025 8.25871 6.25025C9.06356 6.25025 9.71843 6.84551 9.71843 7.57726C9.71843 8.30902 9.06364 8.90428 8.25871 8.90428Z" fill="#000"/>
    <path d="M23.9811 15.8324C24.3253 15.7746 24.5528 15.4742 24.4893 15.1614L24.1904 13.6882C24.1599 13.5379 24.065 13.4049 23.9267 13.3183C23.7882 13.2317 23.6175 13.1985 23.4523 13.2262L22.5731 13.3736C22.505 13.2672 22.4312 13.1639 22.3523 13.0638L22.8592 12.3945C22.9545 12.2686 22.9909 12.1135 22.9604 11.9633C22.93 11.813 22.835 11.6799 22.6966 11.5933L21.3393 10.7438C21.0513 10.5635 20.6566 10.6294 20.4581 10.8915L19.9511 11.5609C19.8201 11.5295 19.6877 11.5038 19.554 11.4839L19.3919 10.6847C19.3284 10.3719 18.9975 10.1648 18.6538 10.2227L17.0333 10.4945C16.868 10.5222 16.7216 10.6085 16.6264 10.7343C16.5311 10.8602 16.4947 11.0152 16.5251 11.1655L16.6873 11.9647C16.5702 12.0267 16.4565 12.0937 16.3465 12.1655L15.6102 11.7047C15.4717 11.6181 15.3011 11.5851 15.1359 11.6126C14.9705 11.6403 14.8242 11.7266 14.7289 11.8525L13.7945 13.0864C13.6991 13.2122 13.6627 13.3673 13.6932 13.5175C13.7237 13.6678 13.8186 13.8009 13.957 13.8875L14.6933 14.3483C14.6587 14.4674 14.6305 14.5878 14.6086 14.7094L13.7294 14.8568C13.5641 14.8845 13.4177 14.9708 13.3225 15.0966C13.2271 15.2225 13.1907 15.3776 13.2212 15.5278L13.5202 17.0009C13.5837 17.3138 13.9141 17.521 14.2583 17.4629L15.1375 17.3155C15.2056 17.4219 15.2794 17.5253 15.3583 17.6253L14.8514 18.2946C14.7562 18.4205 14.7197 18.5755 14.7502 18.7258C14.7806 18.8761 14.8756 19.0091 15.014 19.0958L16.3713 19.9453C16.6593 20.1256 17.0541 20.0596 17.2525 19.7975L17.7594 19.1282C17.8904 19.1596 18.0228 19.1852 18.1566 19.2052L18.3187 20.0044C18.3751 20.2819 18.6415 20.4761 18.9412 20.4761C18.9793 20.4761 19.018 20.473 19.0568 20.4665L20.6773 20.1947C20.8426 20.1671 20.989 20.0807 21.0842 19.955C21.1795 19.8291 21.2159 19.674 21.1855 19.5237L21.0233 18.7245C21.1404 18.6625 21.2541 18.5955 21.3641 18.5237L22.1003 18.9845C22.2388 19.0712 22.4092 19.1044 22.5747 19.0766C22.74 19.0489 22.8863 18.9626 22.9816 18.8367L23.9161 17.6029C24.1145 17.3408 24.0418 16.9822 23.7536 16.8018L23.0173 16.3409C23.0519 16.2218 23.0801 16.1014 23.102 15.9799L23.9811 15.8324ZM22.4066 14.9249C22.116 14.9736 21.901 15.1984 21.8884 15.4667C21.8739 15.7734 21.8034 16.0735 21.679 16.359C21.5701 16.6086 21.6654 16.8935 21.9087 17.0458L22.5129 17.4241L22.2972 17.7089L21.693 17.3308C21.4496 17.1784 21.1229 17.1992 20.9053 17.3807C20.6564 17.5882 20.373 17.7552 20.063 17.877C19.7918 17.9835 19.6375 18.2463 19.6911 18.5103L19.8242 19.1664L19.4501 19.2291L19.317 18.5732C19.2635 18.3091 19.0163 18.1136 18.7212 18.1021C18.3835 18.0888 18.0533 18.0248 17.7393 17.9117C17.6632 17.8843 17.5843 17.8711 17.5061 17.8711C17.3024 17.8711 17.105 17.9608 16.9839 18.1206L16.5679 18.6698L16.2546 18.4737L16.6706 17.9245C16.8381 17.7033 16.8153 17.4063 16.6156 17.2084C16.3873 16.982 16.2037 16.7244 16.0696 16.4425C15.9524 16.196 15.6627 16.0557 15.373 16.1045L14.6514 16.2255L14.5823 15.8855L15.304 15.7645C15.5945 15.7158 15.8095 15.491 15.8221 15.2227C15.8366 14.916 15.9071 14.6158 16.0315 14.3302C16.1404 14.0806 16.045 13.7958 15.8017 13.6434L15.1975 13.2653L15.4133 12.9804L16.0175 13.3586C16.261 13.511 16.5875 13.4902 16.8052 13.3087C17.0542 13.1011 17.3376 12.9341 17.6477 12.8123C17.9187 12.7057 18.073 12.443 18.0194 12.179L17.8863 11.523L18.2604 11.4603L18.3935 12.1162C18.4471 12.3804 18.6943 12.5758 18.9894 12.5873C19.3268 12.6005 19.657 12.6645 19.971 12.7777C20.2458 12.8767 20.5591 12.7899 20.7265 12.5688L21.1426 12.0195L21.4559 12.2156L21.0399 12.7649C20.8724 12.9862 20.8952 13.2832 21.0949 13.4811C21.3232 13.7073 21.5069 13.9649 21.6408 14.2468C21.7579 14.4932 22.0473 14.6336 22.3375 14.5848L23.0591 14.4638L23.1281 14.8039L22.4066 14.9249Z" fill="#000"/>
    <path d="M20.1207 13.6736C19.6298 13.3664 19.0364 13.2514 18.4503 13.3496C17.8642 13.4479 17.3552 13.7479 17.0171 14.1942C16.3193 15.1155 16.5762 16.3813 17.5897 17.0156C17.9753 17.257 18.4158 17.3727 18.8519 17.3727C19.5621 17.3727 20.261 17.0659 20.6933 16.4951C21.3911 15.5737 21.1342 14.308 20.1207 13.6736ZM19.6495 15.8417C19.348 16.2397 18.7463 16.3407 18.3085 16.0667C17.8706 15.7926 17.7596 15.2456 18.0611 14.8476C18.0612 14.8476 18.0612 14.8476 18.0612 14.8476C18.2071 14.6547 18.4271 14.5251 18.6803 14.4827C18.7393 14.4728 18.7986 14.4679 18.8573 14.4679C19.0507 14.4679 19.2394 14.5209 19.402 14.6227C19.8399 14.8968 19.951 15.4436 19.6495 15.8417Z" fill="#000"/>
</svg>
