<svg width="419" height="349" viewBox="0 0 419 349" fill="none"
    xmlns="http://www.w3.org/2000/svg">
    <g clip-path="url(#clip0_401_43)">
        <path d="M419 324.285H0V325.295H419V324.285Z" fill="#343D68"/>
        <path d="M262.889 151.347C262.889 151.347 244.095 166.651 253.492 170.129C262.889 173.607 268.93 157.608 268.93 157.608L262.889 151.347Z" fill="#E9C1A1"/>
        <path d="M263.56 145.782L259.533 152.738C259.533 152.738 266.245 152.738 267.587 163.173L272.957 156.217L263.56 145.782Z" fill="#CFCCE0"/>
        <path d="M352.831 304.386L353.502 325.255L345.447 330.124L342.092 328.038L342.763 304.386H352.831Z" fill="#E9C1A1"/>
        <path d="M305.175 298.821L306.517 321.081L287.723 329.429L289.066 317.603C289.066 317.603 294.436 308.56 293.093 298.821H305.175Z" fill="#E9C1A1"/>
        <path d="M334.037 131.174C334.037 131.174 344.776 160.39 346.79 178.477C348.803 196.563 352.159 244.562 352.159 244.562L358.872 306.473L340.078 309.256L332.023 246.649L313.901 184.738L309.873 246.649L306.517 302.995L289.066 303.691L287.723 245.257L280.34 170.825L284.367 135.348L334.037 131.174Z" fill="#2F2E41"/>
        <path d="M344.105 326.646C344.105 326.646 345.206 314.963 353.381 321.5L354.844 320.386L361.556 335.69C361.556 335.69 369.611 347.515 355.516 348.907C341.42 350.298 342.763 335.69 342.763 335.69L341.42 329.429L342.091 325.329L344.105 326.646Z" fill="#2F2E41"/>
        <path d="M305.175 312.734C306.827 313.713 308.196 315.132 309.141 316.845C310.085 318.557 310.57 320.5 310.545 322.472C310.545 329.429 309.873 330.124 309.873 330.124L299.805 332.907C299.805 332.907 293.093 332.211 289.066 336.385C285.039 340.559 264.902 343.341 264.902 337.776C264.902 332.211 281.683 323.168 281.683 323.168C281.683 323.168 286.666 314.446 290.215 315.329C293.764 316.212 295.107 317.603 295.107 318.299C295.107 318.994 293.093 323.864 293.093 323.864C293.093 323.864 304.504 321.081 305.175 312.734Z" fill="#2F2E41"/>
        <path d="M303.832 45.6111C313.1 45.6111 320.613 37.825 320.613 28.2203C320.613 18.6157 313.1 10.8295 303.832 10.8295C294.565 10.8295 287.052 18.6157 287.052 28.2203C287.052 37.825 294.565 45.6111 303.832 45.6111Z" fill="#E9C1A1"/>
        <path d="M316.25 32.7419L323.633 50.1327L303.497 80.0449C303.497 80.0449 302.154 47.3502 298.127 41.7852C294.1 36.2201 316.25 32.7419 316.25 32.7419Z" fill="#E9C1A1"/>
        <path d="M306.853 68.9149L310.209 59.8718L312.894 60.5672L316.25 57.7846L320.948 42.4809L327.66 47.3502L336.386 138.478L282.018 139.869L289.402 76.5667L296.114 58.4805L300.959 51.8422L304.168 61.9585L306.853 68.9149Z" fill="#CFCCE0"/>
        <path d="M322.291 107.87L324.345 44.9447C324.345 44.9447 328.332 45.2633 329.674 47.3502C331.016 49.4371 353.166 53.6109 353.166 53.6109L349.139 118.305C349.139 118.305 365.919 169.781 359.878 172.564C353.838 175.346 343.098 174.651 343.098 174.651L322.291 107.87Z" fill="#575A89"/>
        <path d="M289.737 99.8704L296.857 57.4611L281.011 68.567L285.039 99.1748L281.683 120.044C281.683 120.044 268.93 177.781 272.957 179.868C276.984 181.955 281.683 179.868 281.683 179.868L289.737 121.435V99.8704Z" fill="#575A89"/>
        <path d="M285.71 67.1757L281.011 68.567L278.998 96.3923L275.642 120.739L259.533 150.652C259.533 150.652 267.587 145.086 270.943 161.086L288.684 129.075L285.71 67.1757Z" fill="#575A89"/>
        <path d="M338.064 145.782C338.064 145.782 319.27 161.086 328.667 164.564C338.064 168.042 344.105 152.043 344.105 152.043L338.064 145.782Z" fill="#E9C1A1"/>
        <path d="M349.475 153.434L343.434 161.086L335.379 146.478L338.735 140.217L349.475 153.434Z" fill="#CFCCE0"/>
        <path d="M348.132 56.0456L353.502 53.2631C353.502 53.2631 357.529 58.8281 358.2 63.6976C358.872 68.567 362.228 74.8277 362.228 78.3058C362.228 81.784 371.625 114.479 371.625 114.479L350.146 159.695C350.146 159.695 345.447 143 335.379 141.608L352.159 117.261L342.763 99.8704L348.132 56.0456Z" fill="#575A89"/>
        <path d="M317.88 11.6506L321.044 10.3377C321.044 10.3377 314.428 2.78858 305.223 3.44506L307.812 0.491011C307.812 0.491011 301.483 -2.13476 295.73 4.75792C292.706 8.38124 289.206 12.6403 287.025 17.438H283.636L285.051 20.6656L280.1 23.8931L285.181 23.3134C284.878 25.0808 284.832 26.8851 285.043 28.6668C285.261 30.449 286.139 32.0737 287.491 33.1981C287.491 33.1981 291.415 24.7796 291.415 23.4667V26.7489C291.415 26.7489 294.579 23.7949 294.579 21.8256L296.305 24.1231L297.168 20.5126L307.812 24.1231L306.086 21.1691L312.702 22.1538L310.113 18.5433C310.113 18.5433 317.592 22.8102 317.88 26.4207C318.168 30.0311 320.357 33.4522 320.357 33.4522C320.357 33.4522 326.222 16.574 317.88 11.6506Z" fill="#2F2E41"/>
        <path d="M317.592 27.8725C318.63 27.8725 319.472 26.7824 319.472 25.4378C319.472 24.0931 318.63 23.0031 317.592 23.0031C316.554 23.0031 315.713 24.0931 315.713 25.4378C315.713 26.7824 316.554 27.8725 317.592 27.8725Z" fill="#E9C1A1"/>
        <path d="M77.668 143.373H19.7261V126.546H49.9707L77.668 143.373Z" fill="#4F47C8"/>
        <path d="M19.567 141.064V190.226H207.719V141.064H19.567ZM92.9496 181.977H31.8239V175.048H92.9496V181.977ZM195.462 169.109H31.8239V162.18H195.462V169.109ZM195.462 156.241H31.8239V149.312H195.462V156.241Z" fill="#343D68"/>
        <path d="M77.668 63.8563H19.7261V47.0288H49.9707L77.668 63.8563Z" fill="#4F47C8"/>
        <path d="M19.567 62.5364V111.698H207.719V62.5364H19.567ZM92.9496 103.45H31.8239V96.5209H92.9496V103.45ZM128.288 90.5819H31.8239V83.653H128.288L128.288 90.5819ZM195.462 77.7139H31.8239V70.7851H195.462V77.7139Z" fill="#343D68"/>
        <path d="M77.668 221.241H19.7261V204.414H49.9707L77.668 221.241Z" fill="#4F47C8"/>
        <path d="M19.567 217.941V267.104H207.719V217.941H19.567ZM128.288 258.855H31.8239V251.926H128.288V258.855ZM128.288 245.987H31.8239V239.058H128.288V245.987ZM195.462 233.119H31.8239V226.19H195.462V233.119Z" fill="#343D68"/>
        <path d="M261.045 100.81H234.302V73.0946H252.449V73.7545H234.939V100.151H260.408V86.9525H261.045V100.81Z" fill="#343D68"/>
        <path d="M247.536 93.5811C246.918 91.6899 239.168 85.2613 243.917 84.1808L247.812 89.5624L265.716 71.0068L267.517 72.873L247.536 93.5811Z" fill="#4F47C8"/>
        <path d="M261.045 179.338H234.302V151.622H252.449V152.282H234.939V178.678H260.408V165.48H261.045V179.338Z" fill="#343D68"/>
        <path d="M247.536 172.108C246.918 170.217 239.168 163.789 243.917 162.708L247.812 168.09L265.716 149.534L267.517 151.4L247.536 172.108Z" fill="#4F47C8"/>
        <path d="M261.045 257.535H234.302V229.82H252.449V230.479H234.939V256.875H260.408V243.677H261.045V257.535Z" fill="#343D68"/>
        <path d="M247.536 250.306C246.918 248.415 239.168 241.986 243.917 240.906L247.812 246.287L265.716 227.732L267.517 229.598L247.536 250.306Z" fill="#4F47C8"/>
    </g>
    <defs>
        <clipPath id="clip0_401_43">
            <rect width="419" height="349" fill="white"/>
        </clipPath>
    </defs>
</svg>
